G75*
%MOIN*%
%OFA0B0*%
%FSLAX25Y25*%
%IPPOS*%
%LPD*%
%AMOC8*
5,1,8,0,0,1.08239X$1,22.5*
%
%ADD10C,0.00000*%
D10*
X0011630Y0001252D02*
X0116327Y0001252D01*
X0011630Y0001252D01*
X0011373Y0001255D01*
X0011116Y0001264D01*
X0010860Y0001280D01*
X0010604Y0001302D01*
X0010349Y0001330D01*
X0010094Y0001364D01*
X0009840Y0001404D01*
X0009588Y0001450D01*
X0009336Y0001502D01*
X0009086Y0001561D01*
X0008837Y0001625D01*
X0008590Y0001696D01*
X0008345Y0001772D01*
X0008102Y0001855D01*
X0007861Y0001943D01*
X0007621Y0002037D01*
X0007385Y0002136D01*
X0007151Y0002242D01*
X0006919Y0002353D01*
X0006690Y0002470D01*
X0006464Y0002592D01*
X0006241Y0002719D01*
X0006021Y0002852D01*
X0005805Y0002990D01*
X0005591Y0003134D01*
X0005382Y0003282D01*
X0005176Y0003436D01*
X0004974Y0003594D01*
X0004775Y0003757D01*
X0004581Y0003925D01*
X0004391Y0004098D01*
X0004205Y0004275D01*
X0004023Y0004457D01*
X0003846Y0004643D01*
X0003673Y0004833D01*
X0003505Y0005027D01*
X0003342Y0005226D01*
X0003184Y0005428D01*
X0003030Y0005634D01*
X0002882Y0005843D01*
X0002738Y0006057D01*
X0002600Y0006273D01*
X0002467Y0006493D01*
X0002340Y0006716D01*
X0002218Y0006942D01*
X0002101Y0007171D01*
X0001990Y0007403D01*
X0001884Y0007637D01*
X0001785Y0007873D01*
X0001691Y0008113D01*
X0001603Y0008354D01*
X0001520Y0008597D01*
X0001444Y0008842D01*
X0001373Y0009089D01*
X0001309Y0009338D01*
X0001250Y0009588D01*
X0001198Y0009840D01*
X0001152Y0010092D01*
X0001112Y0010346D01*
X0001078Y0010601D01*
X0001050Y0010856D01*
X0001028Y0011112D01*
X0001012Y0011368D01*
X0001003Y0011625D01*
X0001000Y0011882D01*
X0001000Y0064915D01*
X0001000Y0065732D02*
X0001000Y0011882D01*
X0001003Y0011621D01*
X0001013Y0011360D01*
X0001029Y0011100D01*
X0001051Y0010840D01*
X0001080Y0010581D01*
X0001115Y0010322D01*
X0001156Y0010065D01*
X0001204Y0009808D01*
X0001258Y0009553D01*
X0001319Y0009299D01*
X0001385Y0009047D01*
X0001458Y0008796D01*
X0001537Y0008548D01*
X0001621Y0008301D01*
X0001712Y0008056D01*
X0001809Y0007814D01*
X0001912Y0007574D01*
X0002021Y0007337D01*
X0002135Y0007103D01*
X0002255Y0006871D01*
X0002381Y0006642D01*
X0002512Y0006417D01*
X0002649Y0006195D01*
X0002791Y0005976D01*
X0002939Y0005761D01*
X0003092Y0005550D01*
X0003250Y0005342D01*
X0003413Y0005138D01*
X0003581Y0004939D01*
X0003754Y0004743D01*
X0003931Y0004552D01*
X0004113Y0004365D01*
X0004300Y0004183D01*
X0004491Y0004006D01*
X0004687Y0003833D01*
X0004886Y0003665D01*
X0005090Y0003502D01*
X0005298Y0003344D01*
X0005509Y0003191D01*
X0005724Y0003043D01*
X0005943Y0002901D01*
X0006165Y0002764D01*
X0006390Y0002633D01*
X0006619Y0002507D01*
X0006851Y0002387D01*
X0007085Y0002273D01*
X0007322Y0002164D01*
X0007562Y0002061D01*
X0007804Y0001964D01*
X0008049Y0001873D01*
X0008296Y0001789D01*
X0008544Y0001710D01*
X0008795Y0001637D01*
X0009047Y0001571D01*
X0009301Y0001510D01*
X0009556Y0001456D01*
X0009813Y0001408D01*
X0010070Y0001367D01*
X0010329Y0001332D01*
X0010588Y0001303D01*
X0010848Y0001281D01*
X0011108Y0001265D01*
X0011369Y0001255D01*
X0011630Y0001252D01*
X0116327Y0001251D02*
X0116607Y0001254D01*
X0116887Y0001265D01*
X0117167Y0001281D01*
X0117446Y0001305D01*
X0117725Y0001336D01*
X0118002Y0001373D01*
X0118279Y0001417D01*
X0118555Y0001467D01*
X0118829Y0001524D01*
X0119102Y0001588D01*
X0119373Y0001658D01*
X0119643Y0001735D01*
X0119910Y0001818D01*
X0120175Y0001908D01*
X0120439Y0002004D01*
X0120699Y0002107D01*
X0120958Y0002216D01*
X0121213Y0002331D01*
X0121466Y0002452D01*
X0121715Y0002579D01*
X0121962Y0002712D01*
X0122205Y0002851D01*
X0122445Y0002996D01*
X0122681Y0003147D01*
X0122914Y0003304D01*
X0123142Y0003465D01*
X0123367Y0003633D01*
X0123588Y0003806D01*
X0123804Y0003984D01*
X0124016Y0004167D01*
X0124223Y0004355D01*
X0124426Y0004549D01*
X0124624Y0004747D01*
X0124818Y0004950D01*
X0125006Y0005157D01*
X0125189Y0005369D01*
X0125367Y0005585D01*
X0125540Y0005806D01*
X0125708Y0006031D01*
X0125869Y0006259D01*
X0126026Y0006492D01*
X0126177Y0006728D01*
X0126322Y0006968D01*
X0126461Y0007211D01*
X0126594Y0007458D01*
X0126721Y0007707D01*
X0126842Y0007960D01*
X0126957Y0008215D01*
X0127066Y0008474D01*
X0127169Y0008734D01*
X0127265Y0008998D01*
X0127355Y0009263D01*
X0127438Y0009530D01*
X0127515Y0009800D01*
X0127585Y0010071D01*
X0127649Y0010344D01*
X0127706Y0010618D01*
X0127756Y0010894D01*
X0127800Y0011171D01*
X0127837Y0011448D01*
X0127868Y0011727D01*
X0127892Y0012006D01*
X0127908Y0012286D01*
X0127919Y0012566D01*
X0127922Y0012846D01*
X0127921Y0012846D02*
X0127921Y0067409D01*
X0127921Y0067319D02*
X0127921Y0012846D01*
X0127918Y0012566D01*
X0127907Y0012286D01*
X0127891Y0012006D01*
X0127867Y0011727D01*
X0127836Y0011448D01*
X0127799Y0011171D01*
X0127756Y0010894D01*
X0127705Y0010618D01*
X0127648Y0010344D01*
X0127584Y0010071D01*
X0127514Y0009800D01*
X0127437Y0009531D01*
X0127354Y0009263D01*
X0127264Y0008998D01*
X0127168Y0008735D01*
X0127065Y0008474D01*
X0126956Y0008216D01*
X0126841Y0007960D01*
X0126720Y0007708D01*
X0126593Y0007458D01*
X0126460Y0007212D01*
X0126321Y0006968D01*
X0126176Y0006729D01*
X0126025Y0006492D01*
X0125869Y0006260D01*
X0125707Y0006031D01*
X0125539Y0005807D01*
X0125367Y0005586D01*
X0125188Y0005370D01*
X0125005Y0005158D01*
X0124817Y0004950D01*
X0124624Y0004747D01*
X0124426Y0004549D01*
X0124223Y0004356D01*
X0124015Y0004168D01*
X0123803Y0003985D01*
X0123587Y0003806D01*
X0123366Y0003634D01*
X0123142Y0003466D01*
X0122913Y0003304D01*
X0122681Y0003148D01*
X0122444Y0002997D01*
X0122205Y0002852D01*
X0121961Y0002713D01*
X0121715Y0002580D01*
X0121465Y0002453D01*
X0121213Y0002332D01*
X0120957Y0002217D01*
X0120699Y0002108D01*
X0120438Y0002005D01*
X0120175Y0001909D01*
X0119910Y0001819D01*
X0119642Y0001736D01*
X0119373Y0001659D01*
X0119102Y0001589D01*
X0118829Y0001525D01*
X0118555Y0001468D01*
X0118279Y0001417D01*
X0118002Y0001374D01*
X0117725Y0001337D01*
X0117446Y0001306D01*
X0117167Y0001282D01*
X0116887Y0001266D01*
X0116607Y0001255D01*
X0116327Y0001252D01*
X0013037Y0076952D02*
X0012746Y0076948D01*
X0012455Y0076938D01*
X0012165Y0076920D01*
X0011875Y0076896D01*
X0011586Y0076864D01*
X0011298Y0076826D01*
X0011010Y0076780D01*
X0010724Y0076728D01*
X0010440Y0076668D01*
X0010156Y0076602D01*
X0009875Y0076529D01*
X0009595Y0076449D01*
X0009317Y0076363D01*
X0009042Y0076270D01*
X0008769Y0076170D01*
X0008498Y0076063D01*
X0008230Y0075950D01*
X0007965Y0075831D01*
X0007702Y0075705D01*
X0007443Y0075573D01*
X0007187Y0075435D01*
X0006935Y0075291D01*
X0006686Y0075140D01*
X0006441Y0074984D01*
X0006199Y0074821D01*
X0005962Y0074653D01*
X0005729Y0074479D01*
X0005500Y0074300D01*
X0005275Y0074115D01*
X0005055Y0073925D01*
X0004840Y0073729D01*
X0004629Y0073529D01*
X0004423Y0073323D01*
X0004223Y0073112D01*
X0004027Y0072897D01*
X0003837Y0072677D01*
X0003652Y0072452D01*
X0003473Y0072223D01*
X0003299Y0071990D01*
X0003131Y0071753D01*
X0002968Y0071511D01*
X0002812Y0071266D01*
X0002661Y0071017D01*
X0002517Y0070765D01*
X0002379Y0070509D01*
X0002247Y0070250D01*
X0002121Y0069987D01*
X0002002Y0069722D01*
X0001889Y0069454D01*
X0001782Y0069183D01*
X0001682Y0068910D01*
X0001589Y0068635D01*
X0001503Y0068357D01*
X0001423Y0068077D01*
X0001350Y0067796D01*
X0001284Y0067512D01*
X0001224Y0067228D01*
X0001172Y0066942D01*
X0001126Y0066654D01*
X0001088Y0066366D01*
X0001056Y0066077D01*
X0001032Y0065787D01*
X0001014Y0065497D01*
X0001004Y0065206D01*
X0001000Y0064915D01*
X0001000Y0065732D02*
X0001003Y0066003D01*
X0001013Y0066274D01*
X0001029Y0066545D01*
X0001052Y0066815D01*
X0001082Y0067085D01*
X0001118Y0067353D01*
X0001160Y0067621D01*
X0001209Y0067888D01*
X0001264Y0068153D01*
X0001326Y0068417D01*
X0001394Y0068680D01*
X0001469Y0068941D01*
X0001549Y0069199D01*
X0001636Y0069456D01*
X0001729Y0069711D01*
X0001828Y0069963D01*
X0001934Y0070213D01*
X0002045Y0070461D01*
X0002162Y0070705D01*
X0002285Y0070947D01*
X0002414Y0071185D01*
X0002549Y0071421D01*
X0002689Y0071653D01*
X0002835Y0071881D01*
X0002986Y0072106D01*
X0003143Y0072328D01*
X0003305Y0072545D01*
X0003472Y0072758D01*
X0003645Y0072968D01*
X0003822Y0073173D01*
X0004004Y0073374D01*
X0004191Y0073570D01*
X0004383Y0073762D01*
X0004579Y0073949D01*
X0004780Y0074131D01*
X0004985Y0074308D01*
X0005195Y0074481D01*
X0005408Y0074648D01*
X0005625Y0074810D01*
X0005847Y0074967D01*
X0006072Y0075118D01*
X0006300Y0075264D01*
X0006532Y0075404D01*
X0006768Y0075539D01*
X0007006Y0075668D01*
X0007248Y0075791D01*
X0007492Y0075908D01*
X0007740Y0076019D01*
X0007990Y0076125D01*
X0008242Y0076224D01*
X0008497Y0076317D01*
X0008754Y0076404D01*
X0009012Y0076484D01*
X0009273Y0076559D01*
X0009536Y0076627D01*
X0009800Y0076689D01*
X0010065Y0076744D01*
X0010332Y0076793D01*
X0010600Y0076835D01*
X0010868Y0076871D01*
X0011138Y0076901D01*
X0011408Y0076924D01*
X0011679Y0076940D01*
X0011950Y0076950D01*
X0012221Y0076953D01*
X0118288Y0076953D01*
X0118378Y0076953D02*
X0013037Y0076953D01*
X0118288Y0076953D02*
X0118521Y0076950D01*
X0118753Y0076942D01*
X0118986Y0076928D01*
X0119218Y0076908D01*
X0119449Y0076883D01*
X0119680Y0076852D01*
X0119910Y0076815D01*
X0120139Y0076774D01*
X0120367Y0076726D01*
X0120594Y0076673D01*
X0120819Y0076615D01*
X0121043Y0076551D01*
X0121265Y0076481D01*
X0121486Y0076407D01*
X0121704Y0076327D01*
X0121921Y0076242D01*
X0122135Y0076151D01*
X0122348Y0076056D01*
X0122558Y0075955D01*
X0122765Y0075849D01*
X0122970Y0075739D01*
X0123172Y0075623D01*
X0123371Y0075503D01*
X0123568Y0075378D01*
X0123761Y0075248D01*
X0123951Y0075113D01*
X0124137Y0074974D01*
X0124321Y0074830D01*
X0124500Y0074682D01*
X0124677Y0074530D01*
X0124849Y0074374D01*
X0125017Y0074213D01*
X0125182Y0074048D01*
X0125343Y0073880D01*
X0125499Y0073708D01*
X0125651Y0073531D01*
X0125799Y0073352D01*
X0125943Y0073168D01*
X0126082Y0072982D01*
X0126217Y0072792D01*
X0126347Y0072599D01*
X0126472Y0072402D01*
X0126592Y0072203D01*
X0126708Y0072001D01*
X0126818Y0071796D01*
X0126924Y0071589D01*
X0127025Y0071379D01*
X0127120Y0071166D01*
X0127211Y0070952D01*
X0127296Y0070735D01*
X0127376Y0070517D01*
X0127450Y0070296D01*
X0127520Y0070074D01*
X0127584Y0069850D01*
X0127642Y0069625D01*
X0127695Y0069398D01*
X0127743Y0069170D01*
X0127784Y0068941D01*
X0127821Y0068711D01*
X0127852Y0068480D01*
X0127877Y0068249D01*
X0127897Y0068017D01*
X0127911Y0067784D01*
X0127919Y0067552D01*
X0127922Y0067319D01*
X0127922Y0067409D02*
X0127919Y0067640D01*
X0127911Y0067870D01*
X0127897Y0068100D01*
X0127877Y0068330D01*
X0127852Y0068559D01*
X0127822Y0068788D01*
X0127786Y0069016D01*
X0127744Y0069243D01*
X0127697Y0069468D01*
X0127645Y0069693D01*
X0127587Y0069916D01*
X0127523Y0070138D01*
X0127455Y0070358D01*
X0127381Y0070577D01*
X0127302Y0070793D01*
X0127217Y0071008D01*
X0127128Y0071221D01*
X0127033Y0071431D01*
X0126933Y0071639D01*
X0126829Y0071844D01*
X0126719Y0072047D01*
X0126605Y0072247D01*
X0126485Y0072445D01*
X0126361Y0072639D01*
X0126233Y0072831D01*
X0126099Y0073019D01*
X0125961Y0073204D01*
X0125819Y0073385D01*
X0125673Y0073563D01*
X0125522Y0073738D01*
X0125367Y0073909D01*
X0125208Y0074076D01*
X0125045Y0074239D01*
X0124878Y0074398D01*
X0124707Y0074553D01*
X0124532Y0074704D01*
X0124354Y0074850D01*
X0124173Y0074992D01*
X0123988Y0075130D01*
X0123800Y0075264D01*
X0123608Y0075392D01*
X0123414Y0075516D01*
X0123216Y0075636D01*
X0123016Y0075750D01*
X0122813Y0075860D01*
X0122608Y0075964D01*
X0122400Y0076064D01*
X0122190Y0076159D01*
X0121977Y0076248D01*
X0121762Y0076333D01*
X0121546Y0076412D01*
X0121327Y0076486D01*
X0121107Y0076554D01*
X0120885Y0076618D01*
X0120662Y0076676D01*
X0120437Y0076728D01*
X0120212Y0076775D01*
X0119985Y0076817D01*
X0119757Y0076853D01*
X0119528Y0076883D01*
X0119299Y0076908D01*
X0119069Y0076928D01*
X0118839Y0076942D01*
X0118609Y0076950D01*
X0118378Y0076953D01*
M02*
